<svg data-v-423bf9ae="" xmlns="http://www.w3.org/2000/svg" viewBox="0 0 326 90" class="iconLeft"><!----><!----><!----><g data-v-423bf9ae="" id="e8dccce0-88c4-4942-b733-61fb25b29095" fill="#FFF" transform="matrix(6.1224488604322,0,0,6.1224488604322,76.98554470319644,-16.10203926705264)"><path d="M8.82 13.94L8.82 6.02L7.20 5.08L1.19 5.08L1.19 14.88L7.20 14.88ZM3.15 6.76L6.86 6.76L6.86 13.20L3.15 13.20ZM19.45 14.88L21.34 14.88L21.34 5.08L18.75 5.08L16.30 12.29L16.27 12.29L13.80 5.08L11.20 5.08L11.20 14.88L13.09 14.88L13.09 8.33L13.12 8.33L15.34 14.88L17.21 14.88L19.42 8.41L19.45 8.41ZM31.35 13.94L31.35 6.02L29.72 5.08L23.72 5.08L23.72 14.88L29.72 14.88ZM25.68 6.76L29.39 6.76L29.39 13.20L25.68 13.20ZM40.66 9.10L40.66 6.02L39.03 5.08L33.73 5.08L33.73 14.88L39.03 14.88L40.66 13.94L40.66 10.53L39.44 9.83L39.44 9.80ZM35.69 10.65L38.70 10.65L38.70 13.20L35.69 13.20ZM35.69 6.76L38.70 6.76L38.70 8.97L35.69 8.97Z"></path></g><defs data-v-423bf9ae=""><linearGradient data-v-423bf9ae="" gradientTransform="rotate(25)" id="fb104478-88c8-4b62-a59e-062f3bef73f4" x1="0%" y1="0%" x2="100%" y2="0%"><stop data-v-423bf9ae="" offset="0%" style="stop-color: rgb(235, 110, 0); stop-opacity: 1;"></stop><stop data-v-423bf9ae="" offset="100%" style="stop-color: rgb(243, 188, 230); stop-opacity: 1;"></stop></linearGradient></defs><g data-v-423bf9ae="" id="c4a960df-b246-47f6-a11a-b132c5c020f8" transform="matrix(2.8125,0,0,2.8125,-12.426001459360123,0)" stroke="none" fill="url(#fb104478-88c8-4b62-a59e-062f3bef73f4)"><path d="M27.377 11.377L16 0 4.623 11.377 16 22.753l11.377-11.376zM16 6.026l5.35 5.35L16 16.727l-5.35-5.35L16 6.026zM27.426 14.969l-5.664 5.664V32h5.664zM10.238 20.633l-5.664-5.664V32h5.664z"></path></g><!----></svg>